PathFileType	4	(X/Y/Z)	c:/Users/goper/Files/vsCode/490R/osim_files/C05/C05_Fast_04.trc
DataRate	CameraRate	NumFrames	NumMarkers	Units                	OrigDataRate	OrigDataStartFrame	OrigNumFrames
250.00	250.00	4	36	mm	250.0	2071	2761
                Frame#	Time	LPSIS			LASIS			LTH1			LTH2			LTH3			LTH4			LLFE			LMFE			LSH1			LSH2			LSH3			LSH4			LLMAL			LMMAL			LCAL			LMTP5			LTOE			LMTP1			RPSIS			RASIS			RTH1			RTH2			RTH3			RTH4			RLFE			RMFE			RSH1			RSH2			RSH3			RSH4			RLMAL			RMMAL			RCAL			RMTP1			RTOE			RMTP5		
		X1	Y1	Z1	X2	Y2	Z2	X3	Y3	Z3	X4	Y4	Z4	X5	Y5	Z5	X6	Y6	Z6	X7	Y7	Z7	X8	Y8	Z8	X9	Y9	Z9	X10	Y10	Z10	X11	Y11	Z11	X12	Y12	Z12	X13	Y13	Z13	X14	Y14	Z14	X15	Y15	Z15	X16	Y16	Z16	X17	Y17	Z17	X18	Y18	Z18	X19	Y19	Z19	X20	Y20	Z20	X21	Y21	Z21	X22	Y22	Z22	X23	Y23	Z23	X24	Y24	Z24	X25	Y25	Z25	X26	Y26	Z26	X27	Y27	Z27	X28	Y28	Z28	X29	Y29	Z29	X30	Y30	Z30	X31	Y31	Z31	X32	Y32	Z32	X33	Y33	Z33	X34	Y34	Z34	X35	Y35	Z35	X36	Y36	Z36

2071	8.28000	-2141.32251	1026.01648	325.27420	-2343.44458	995.46234	370.36194	-2333.62549	678.22290	430.45184	-2363.94507	624.11816	424.20102	-2402.69531	710.60785	428.15256	-2426.21240	654.04730	425.26334	-2452.89746	550.77411	411.59717	-2444.11938	531.20667	292.12155	-2446.13721	358.25504	425.63171	-2470.75635	321.93427	424.39474	-2502.49048	385.81317	439.13065	-2517.46899	345.02579	434.06488	-2605.17969	128.78951	402.86328	-2631.90698	157.54181	322.18939	-2577.43555	72.86159	345.00119	-2753.21313	145.23389	441.30695	-2775.18506	189.80753	384.87354	-2779.15576	170.38678	337.40393	-2141.42310	1042.32397	218.55154	-2331.05469	1001.65100	138.98242	-2219.40234	673.58966	98.83278	-2209.43970	612.43683	110.76536	-2143.03882	678.55127	95.20115	-2142.46191	614.76538	112.07802	0.00000	0.00000	0.00000	-2160.09961	522.02563	126.95609	-2033.81458	393.54187	117.25918	-2024.10681	346.62595	124.29780	-2091.68018	372.78992	122.66885	-2074.30420	330.02060	129.67328	-1965.99268	119.05298	175.90837	-1988.08911	124.38847	260.46356	-1896.29004	95.77753	222.53535	-2106.93433	43.28079	242.65585	-2129.94238	64.59509	195.35628	-2076.63135	42.01450	132.98796
2072	8.28400	-2147.48340	1024.70605	325.89899	-2349.67358	994.05298	370.29956	-2339.43311	677.13184	431.32089	-2369.51978	622.96637	425.11188	-2409.79028	709.72864	430.42462	-2431.91528	652.39838	426.40491	-2457.84448	549.26581	412.75690	-2447.34790	529.59436	292.63763	-2453.37476	356.71652	426.27084	-2478.50781	320.68802	424.76517	-2509.32617	385.02969	439.75003	-2524.95581	344.47137	434.55374	-2616.34814	129.36653	402.23404	-2641.78516	159.25386	321.67447	-2588.76489	73.42628	344.12418	-2764.02466	147.31628	439.85522	-2784.97803	192.94038	383.78433	-2788.88989	174.43298	336.03140	-2147.31128	1041.16614	219.18948	-2336.68457	1000.37073	138.92586	-2223.73975	672.64496	99.05302	-2213.60645	611.58789	110.93146	-2147.52197	678.21301	95.10453	-2146.42041	614.15118	112.26779	0.00000	0.00000	0.00000	-2163.59961	521.36731	127.10203	-2036.32996	393.69354	117.34837	-2026.20422	346.84644	124.39416	-2093.86060	372.61142	122.55404	-2076.33936	329.93771	129.67287	-1966.39172	119.63747	175.88911	-1988.62585	124.83515	260.44427	-1896.69751	96.58936	222.50691	-2107.00171	43.21571	242.61855	-2130.04883	64.47654	195.31743	-2076.66748	42.01018	132.99556
2073	8.28800	-2153.68066	1023.44836	326.60358	-2356.07080	992.67065	370.22379	-2345.60034	676.07904	432.36929	-2375.69214	621.66962	426.26566	-2415.92896	708.36224	431.58826	-2437.89185	651.07617	427.33932	-2463.00806	548.00873	413.62534	-2450.95947	528.15942	292.89432	-2460.23584	355.16309	426.57083	-2485.84888	319.53174	424.93057	-2515.76978	384.18915	440.20514	-2531.84790	343.78073	434.85666	-2626.57593	129.77972	401.79382	-2651.00684	160.84239	321.33389	-2599.28418	73.88134	343.30399	-2774.41870	149.02354	438.34781	-2794.10327	195.70424	382.78888	-2797.88037	177.94254	334.65213	-2153.16553	1040.03540	219.86345	-2342.32178	999.13208	138.92348	-2228.24048	671.59613	99.30721	-2217.51514	610.57916	111.25553	-2152.03589	677.58185	95.17931	-2150.57275	613.46759	112.37016	0.00000	0.00000	0.00000	-2167.18945	520.66980	127.31319	-2038.95911	393.87671	117.45204	-2028.44812	347.12613	124.46103	-2096.30884	372.32803	122.68122	-2078.43237	329.73492	129.74399	-1966.88806	120.27975	175.80156	-1989.22595	125.30461	260.36041	-1897.08850	97.54478	222.44243	-2107.08594	43.18869	242.54286	-2130.16846	64.32597	195.26920	-2076.71655	41.98887	132.99080
2074	8.29200	-2159.89014	1022.15472	327.19781	-2362.45142	991.28882	370.22290	-2351.88330	675.03821	433.41129	-2381.50488	620.44495	426.59409	-2421.28149	706.70465	432.11938	-2444.06543	649.75519	428.04410	-2468.52051	546.88757	414.32294	-2455.16821	527.14258	293.12479	-2466.71704	353.66409	426.57773	-2492.70410	318.09729	424.84036	-2521.91626	383.18356	440.49295	-2538.46313	343.01144	434.98163	-2636.09497	129.81560	401.49289	-2659.44165	161.96080	321.01520	-2608.89795	74.05109	342.57269	-2784.12598	150.27405	436.89316	-2802.56738	197.86690	381.77731	-2806.07324	181.00992	333.34460	-2159.09814	1038.85217	220.49570	-2348.05103	997.87323	138.92934	-2232.71167	670.52228	99.52782	-2221.77148	609.58398	111.51499	-2156.55640	676.91650	95.29160	-2154.85913	612.84760	112.58162	0.00000	0.00000	0.00000	-2170.95850	519.89362	127.59026	-2041.72473	394.03690	117.52193	-2030.91272	347.33115	124.54999	-2098.92334	372.03806	122.76344	-2080.71167	329.57870	129.85002	-1967.50806	120.90936	175.70346	-1989.80750	125.82616	260.29584	-1897.46399	98.51553	222.24280	-2107.22705	43.17977	242.48630	-2130.32861	64.20947	195.23494	-2076.78369	41.98289	132.98416
